HIERARCHY
ROOT Hips
{
 OFFSET 0.000000 0.000000 0.000000
 CHANNELS 6 Xposition Yposition Zposition Yrotation Xrotation Zrotation
 JOINT Chest
 {
  OFFSET 0.000000 10.354800 0.006500
  CHANNELS 3 Yrotation Xrotation Zrotation
  JOINT Chest2
  {
   OFFSET 0.000000 10.435800 -0.013200
   CHANNELS 3 Yrotation Xrotation Zrotation
   JOINT Chest3
   {
    OFFSET 0.000000 10.393700 0.000000
    CHANNELS 3 Yrotation Xrotation Zrotation
    JOINT Chest4
    {
     OFFSET 0.000000 10.383100 0.000000
     CHANNELS 3 Yrotation Xrotation Zrotation
     JOINT Neck
     {
      OFFSET 0.000000 15.694000 0.000000
      CHANNELS 3 Yrotation Xrotation Zrotation
      JOINT Head
      {
       OFFSET 0.000000 9.711000 -0.028000
       CHANNELS 3 Yrotation Xrotation Zrotation
       End Site
       {
        OFFSET 0.000000 18.578700 -0.014800
       }
      }
     }
     JOINT RightCollar
     {
      OFFSET -3.157200 10.367500 0.000000
      CHANNELS 3 Yrotation Xrotation Zrotation
      JOINT RightShoulder
      {
       OFFSET -14.482500 0.000000 0.000000
       CHANNELS 3 Yrotation Xrotation Zrotation
       JOINT RightElbow
       {
        OFFSET 0.000000 -31.707800 0.000000
        CHANNELS 3 Yrotation Xrotation Zrotation
        JOINT RightWrist
        {
         OFFSET 0.000000 -25.659300 0.000000
         CHANNELS 3 Yrotation Xrotation Zrotation
         End Site
         {
          OFFSET 0.000000 -18.994300 0.000000
         }
        }
       }
      }
     }
     JOINT LeftCollar
     {
      OFFSET 3.157200 10.367500 0.000000
      CHANNELS 3 Yrotation Xrotation Zrotation
      JOINT LeftShoulder
      {
       OFFSET 14.482500 0.000000 0.000000
       CHANNELS 3 Yrotation Xrotation Zrotation
       JOINT LeftElbow
       {
        OFFSET 0.000000 -31.707800 0.000000
        CHANNELS 3 Yrotation Xrotation Zrotation
        JOINT LeftWrist
        {
         OFFSET 0.000000 -25.659300 0.000000
         CHANNELS 3 Yrotation Xrotation Zrotation
         End Site
         {
          OFFSET 0.000000 -18.994300 0.000000
         }
        }
       }
      }
     }
    }
   }
  }
 }
 JOINT RightHip
 {
  OFFSET -8.365600 -0.032100 -0.003200
  CHANNELS 3 Yrotation Xrotation Zrotation
  JOINT RightKnee
  {
   OFFSET 0.000000 -43.980000 0.003100
   CHANNELS 3 Yrotation Xrotation Zrotation
   JOINT RightAnkle
   {
    OFFSET 0.000000 -42.882800 0.005200
    CHANNELS 3 Yrotation Xrotation Zrotation
    JOINT RightToe
    {
     OFFSET 0.000000 -4.915500 10.826300
     CHANNELS 3 Yrotation Xrotation Zrotation
     End Site
     {
      OFFSET 0.000000 -1.517500 6.175900
     }
    }
   }
  }
 }
 JOINT LeftHip
 {
  OFFSET 8.365600 -0.032100 -0.003200
  CHANNELS 3 Yrotation Xrotation Zrotation
  JOINT LeftKnee
  {
   OFFSET 0.000000 -43.980000 0.003100
   CHANNELS 3 Yrotation Xrotation Zrotation
   JOINT LeftAnkle
   {
    OFFSET 0.000000 -42.882800 0.005200
    CHANNELS 3 Yrotation Xrotation Zrotation
    JOINT LeftToe
    {
     OFFSET 0.000000 -4.915500 10.826300
     CHANNELS 3 Yrotation Xrotation Zrotation
     End Site
     {
      OFFSET 0.000000 -1.517500 6.175900
     }
    }
   }
  }
 }
}
MOTION
Frames: 10
Frame Time: 0.008333
1.095345 126.870487 42.485305 176.638226 -26.624029 -3.121290 -2.697692 13.960388 2.730955 -0.263845 1.228456 0.266778 -0.442216 2.075145 0.447418 -2.446891 12.560964 2.502950 -5.057958 19.678426 0.066966 -5.449782 -4.702466 1.253376 -0.077068 9.436826 -9.859432 -22.082237 -14.825157 -12.451283 -127.060628 -45.357593 152.379609 -25.154649 -14.031122 -30.057147 3.810537 12.414982 3.776586 33.383606 -11.826091 -3.901834 131.425493 -41.813082 -162.559104 29.657225 -4.775643 38.141530 8.767083 -55.757689 2.814593 -113.252984 80.947512 -107.166105 2.842894 -12.135599 -15.237416 -0.002522 0.001655 -0.001145 -14.031633 -55.101647 9.094033 72.610602 81.151135 66.101234 -4.742334 -6.608195 1.359909 -0.004954 0.001690 -0.002249
1.094283 126.867850 42.486899 176.650556 -26.584388 -3.118881 -2.709984 13.953147 2.736981 -0.264522 1.230187 0.268179 -0.443462 2.077710 0.449673 -2.448084 12.565603 2.508782 -5.071725 19.741839 0.082432 -5.468346 -4.667751 1.256038 -0.081554 9.445591 -9.846161 -22.081814 -14.818545 -12.433434 -127.032354 -45.339366 152.381267 -25.132228 -14.194441 -30.146488 3.792669 12.414051 3.765657 33.432735 -11.827442 -3.964524 131.183724 -41.739843 -162.483320 29.695068 -4.813892 38.123225 8.806545 -55.798908 2.744613 -113.355372 80.962190 -107.244013 2.855235 -12.133382 -15.243683 -0.004501 0.002516 -0.002044 -14.029110 -55.142660 9.087926 72.570266 81.136952 66.061580 -4.750266 -6.601205 1.365636 -0.008403 0.003589 -0.003815
1.095463 126.866953 42.485773 176.661437 -26.565863 -3.125715 -2.715955 13.962081 2.749403 -0.259756 1.254605 0.276575 -0.449921 2.058417 0.444533 -2.446424 12.573774 2.516951 -5.082554 19.771660 0.089074 -5.482543 -4.645098 1.261847 -0.087027 9.453306 -9.833651 -22.086662 -14.806057 -12.410198 -126.953136 -45.329197 152.312811 -25.077937 -14.359298 -30.199382 3.780519 12.450328 3.777618 33.483783 -11.846287 -4.061679 130.949042 -41.663143 -162.415185 29.737862 -4.864260 38.111450 8.803242 -55.820530 2.731027 -113.457781 80.980373 -107.334440 2.846997 -12.142608 -15.254199 -0.002849 0.000498 -0.001294 -14.007701 -55.160472 9.091326 72.494666 81.136270 65.999065 -4.780546 -6.603257 1.359346 -0.004901 0.002883 -0.002225
1.095139 126.865757 42.485311 176.670872 -26.545237 -3.122081 -2.718691 13.970050 2.753041 -0.258217 1.262086 0.280405 -0.447971 2.079058 0.452329 -2.451371 12.554431 2.519144 -5.093847 19.785904 0.091719 -5.495857 -4.628211 1.267357 -0.094388 9.450263 -9.830470 -22.092432 -14.774596 -12.379683 -126.938494 -45.326573 152.297277 -25.050266 -14.496259 -30.276260 3.769460 12.431467 3.764926 33.512691 -11.829607 -4.101537 130.734465 -41.586605 -162.354281 29.785390 -4.922018 38.099233 8.807235 -55.844401 2.708148 -113.557987 81.000347 -107.426197 2.834937 -12.162408 -15.269376 0.000348 -0.002245 0.000158 -14.008222 -55.181552 9.090700 72.505629 81.093906 66.001869 -4.821048 -6.588006 1.369042 -0.012521 0.001836 -0.005685
1.096773 126.865500 42.483557 176.673860 -26.536119 -3.124202 -2.711234 13.987224 2.765566 -0.261483 1.262332 0.282082 -0.445579 2.089324 0.457096 -2.457068 12.535154 2.516169 -5.098139 19.818583 0.101381 -5.510367 -4.611927 1.272619 -0.098416 9.443337 -9.833093 -22.092494 -14.714321 -12.343087 -126.956841 -45.326430 152.305730 -25.032901 -14.601039 -30.369283 3.765602 12.430556 3.761542 33.532360 -11.818670 -4.132561 130.549277 -41.519023 -162.291678 29.833248 -4.979648 38.083927 8.801263 -55.855877 2.708547 -113.632047 81.024417 -107.496081 2.814302 -12.190148 -15.280349 0.000731 -0.003669 0.000332 -14.000193 -55.189040 9.105886 72.446828 81.093831 65.942034 -4.823529 -6.583163 1.369858 -0.011314 0.001021 -0.005137
1.099145 126.865286 42.482009 176.674531 -26.527876 -3.127636 -2.705855 14.004720 2.780235 -0.261276 1.261631 0.282692 -0.444840 2.091914 0.458791 -2.460999 12.525203 2.516068 -5.099235 19.849440 0.109559 -5.525850 -4.596438 1.278586 -0.099778 9.474339 -9.817118 -22.096372 -14.694535 -12.311989 -127.020318 -45.320487 152.365941 -25.029441 -14.675177 -30.495223 3.774648 12.473893 3.782743 33.540953 -11.846716 -4.197475 130.404692 -41.466644 -162.225210 29.874163 -5.029189 38.068995 8.790727 -55.867674 2.716496 -113.690561 81.057058 -107.547431 2.778588 -12.209129 -15.293838 0.003240 -0.004847 0.001471 -13.997772 -55.192090 9.133232 72.349758 81.105595 65.842597 -4.826969 -6.581982 1.360778 -0.010643 0.001502 -0.004832
1.102835 126.865157 42.480617 176.669208 -26.520769 -3.133973 -2.690242 14.042437 2.810438 -0.264833 1.240378 0.274675 -0.443808 2.094384 0.460303 -2.433993 12.567353 2.543745 -5.132429 19.824740 0.099390 -5.540725 -4.581376 1.284497 -0.139131 9.490094 -9.802383 -22.098197 -14.715310 -12.291973 -127.086343 -45.309012 152.426173 -25.027226 -14.727107 -30.621929 3.745894 12.432121 3.761978 33.551376 -11.841290 -4.233327 130.320394 -41.423661 -162.200597 29.904139 -5.070343 38.056494 8.774311 -55.883328 2.740985 -113.708919 81.054435 -107.569579 2.775650 -12.215560 -15.295992 0.002843 -0.003753 0.001291 -14.008755 -55.191087 9.200712 72.212132 81.147030 65.695026 -4.840263 -6.581338 1.357678 -0.000306 0.002102 -0.000139
1.104737 126.864322 42.480353 176.663382 -26.506444 -3.128934 -2.684608 14.048586 2.819547 -0.264269 1.241847 0.275524 -0.442824 2.096771 0.461745 -2.425749 12.574157 2.551430 -5.143498 19.837027 0.101125 -5.553528 -4.566667 1.288972 -0.156615 9.517559 -9.785849 -22.101286 -14.706539 -12.274431 -127.116713 -45.303503 152.434794 -25.022737 -14.770576 -30.712720 3.738720 12.428233 3.756137 33.557927 -11.832723 -4.266135 130.303381 -41.398334 -162.213945 29.926443 -5.101082 38.046323 8.781383 -55.901118 2.734696 -113.688184 81.052044 -107.547651 2.784184 -12.240638 -15.300117 0.003531 -0.003606 0.001603 -14.011767 -55.200691 9.239317 72.094452 81.164308 65.562391 -4.844690 -6.573316 1.360271 -0.001543 0.001304 -0.000701
1.106250 126.863422 42.480069 176.653728 -26.492393 -3.118595 -2.679370 14.052603 2.823801 -0.262580 1.238924 0.274145 -0.443288 2.103165 0.465035 -2.421602 12.566938 2.550046 -5.147805 19.863687 0.108652 -5.562939 -4.551653 1.292308 -0.163516 9.548627 -9.768414 -22.112834 -14.685382 -12.257930 -127.127686 -45.296939 152.431273 -25.017569 -14.811670 -30.796256 3.740249 12.441612 3.757660 33.570531 -11.826578 -4.297193 130.296027 -41.375632 -162.233493 29.897712 -5.130751 38.055477 8.793079 -55.918832 2.727511 -113.622501 81.041683 -107.486088 2.788386 -12.263286 -15.302359 0.002693 -0.004318 0.001223 -14.009031 -55.209496 9.278337 72.002410 81.164614 65.448434 -4.869739 -6.561000 1.368188 -0.003406 -0.000148 -0.001546
1.107963 126.861964 42.480886 176.627881 -26.472208 -3.101302 -2.662263 14.048274 2.826263 -0.258693 1.226892 0.268766 -0.446214 2.117866 0.471600 -2.415857 12.561130 2.550624 -5.152546 19.888002 0.113797 -5.568230 -4.535936 1.295824 -0.167127 9.579512 -9.752502 -22.134821 -14.665131 -12.241356 -127.074104 -45.308842 152.344622 -25.005693 -14.863066 -30.816566 3.745197 12.456903 3.760528 33.582102 -11.824920 -4.325556 130.328950 -41.363000 -162.266450 29.844976 -5.156697 38.077102 8.795261 -55.951917 2.736704 -113.563601 81.026693 -107.447307 2.804160 -12.251306 -15.302007 0.000837 -0.004440 0.000380 -13.993359 -55.225627 9.312650 71.909767 81.184562 65.348059 -4.873585 -6.558410 1.367521 -0.003782 0.000212 -0.001717
